<svg xmlns="http://www.w3.org/2000/svg" width="900" height="160" viewBox="0 0 900 160">
  <defs>
    <clipPath id="spriteClip"><rect x="-32" y="-65" width="65" height="72" rx="3" /></clipPath>
  </defs>
  <rect width="100%" height="100%" fill="#101827" />
  <line x1="15" y1="144" x2="885" y2="144" stroke="rgba(79,195,200,.3)" stroke-width="1" />

  <g>
    <rect x="20" y="136" width="10" height="4" rx="2" fill="#173042" />
    <rect x="36" y="126" width="10" height="14" rx="2" fill="#4FC3C8" />
    <rect x="52" y="136" width="10" height="4" rx="2" fill="#173042" />
    <rect x="68" y="111" width="10" height="29" rx="2" fill="#4FC3C8" />
    <rect x="84" y="69" width="10" height="71" rx="2" fill="#4FC3C8" />
    <rect x="100" y="126" width="10" height="14" rx="2" fill="#4FC3C8" />
    <rect x="116" y="136" width="10" height="4" rx="2" fill="#173042" />
    <rect x="132" y="97" width="10" height="43" rx="2" fill="#4FC3C8" />
    <rect x="148" y="54" width="10" height="86" rx="2" fill="#4FC3C8" />
    <rect x="164" y="111" width="10" height="29" rx="2" fill="#4FC3C8" />
    <rect x="180" y="136" width="10" height="4" rx="2" fill="#173042" />
    <rect x="196" y="126" width="10" height="14" rx="2" fill="#4FC3C8" />
    <rect x="212" y="83" width="10" height="57" rx="2" fill="#4FC3C8" />
    <rect x="228" y="136" width="10" height="4" rx="2" fill="#173042" />
    <rect x="244" y="111" width="10" height="29" rx="2" fill="#4FC3C8" />
    <rect x="260" y="40" width="10" height="100" rx="2" fill="#4FC3C8" />
    <rect x="276" y="126" width="10" height="14" rx="2" fill="#4FC3C8" />
    <rect x="292" y="136" width="10" height="4" rx="2" fill="#173042" />
    <rect x="308" y="97" width="10" height="43" rx="2" fill="#4FC3C8" />
    <rect x="324" y="111" width="10" height="29" rx="2" fill="#4FC3C8" />
    <rect x="340" y="136" width="10" height="4" rx="2" fill="#173042" />
    <rect x="356" y="69" width="10" height="71" rx="2" fill="#4FC3C8" />
    <rect x="372" y="126" width="10" height="14" rx="2" fill="#4FC3C8" />
    <rect x="388" y="136" width="10" height="4" rx="2" fill="#173042" />
    <rect x="404" y="83" width="10" height="57" rx="2" fill="#4FC3C8" />
    <rect x="420" y="111" width="10" height="29" rx="2" fill="#4FC3C8" />
    <rect x="436" y="126" width="10" height="14" rx="2" fill="#4FC3C8" />
    <rect x="452" y="136" width="10" height="4" rx="2" fill="#173042" />
  </g>

  <path id="runPath" d="M 25 122 Q 33 90 41 112 Q 49 90 57 122 Q 65 75 73 97 Q 81 33 89 55 Q 97 33 105 112 Q 113 90 121 122 Q 129 61 137 83 Q 145 18 153 40 Q 161 18 169 97 Q 177 75 185 122 Q 193 90 201 112 Q 209 47 217 69 Q 225 47 233 122 Q 241 75 249 97 Q 257 4 265 26 Q 273 4 281 112 Q 289 90 297 122 Q 305 61 313 83 Q 321 61 329 97 Q 337 75 345 122 Q 353 33 361 55 Q 369 33 377 112 Q 385 90 393 122 Q 401 47 409 69 Q 417 47 425 97 Q 433 75 441 112 Q 449 90 457 122" fill="none" stroke="none" />

  <g id="runner">
    <ellipse cx="0" cy="9" rx="14" ry="2.5" fill="#07131e" opacity=".5" />
    <g id="itachiRunner">
      <g clip-path="url(#spriteClip)" opacity="0">
      <g transform="translate(-32 -65) scale(.34)">
        <image href="https://raw.githubusercontent.com/Adrix1412/Adrix1412/main/assets/itachi-spritesheet.webp" x="-0" y="-190" width="1536" height="1872" preserveAspectRatio="none" style="image-rendering:pixelated" />
      </g>
      <animate attributeName="opacity" values="0;1;1;0;0" keyTimes="0;0.000;0.115;0.125;1" dur=".72s" repeatCount="indefinite" />
    </g>
    <g clip-path="url(#spriteClip)" opacity="0">
      <g transform="translate(-32 -65) scale(.34)">
        <image href="https://raw.githubusercontent.com/Adrix1412/Adrix1412/main/assets/itachi-spritesheet.webp" x="-192" y="-190" width="1536" height="1872" preserveAspectRatio="none" style="image-rendering:pixelated" />
      </g>
      <animate attributeName="opacity" values="0;1;1;0;0" keyTimes="0;0.125;0.240;0.250;1" dur=".72s" repeatCount="indefinite" />
    </g>
    <g clip-path="url(#spriteClip)" opacity="0">
      <g transform="translate(-32 -65) scale(.34)">
        <image href="https://raw.githubusercontent.com/Adrix1412/Adrix1412/main/assets/itachi-spritesheet.webp" x="-384" y="-190" width="1536" height="1872" preserveAspectRatio="none" style="image-rendering:pixelated" />
      </g>
      <animate attributeName="opacity" values="0;1;1;0;0" keyTimes="0;0.250;0.365;0.375;1" dur=".72s" repeatCount="indefinite" />
    </g>
    <g clip-path="url(#spriteClip)" opacity="0">
      <g transform="translate(-32 -65) scale(.34)">
        <image href="https://raw.githubusercontent.com/Adrix1412/Adrix1412/main/assets/itachi-spritesheet.webp" x="-576" y="-190" width="1536" height="1872" preserveAspectRatio="none" style="image-rendering:pixelated" />
      </g>
      <animate attributeName="opacity" values="0;1;1;0;0" keyTimes="0;0.375;0.490;0.500;1" dur=".72s" repeatCount="indefinite" />
    </g>
    <g clip-path="url(#spriteClip)" opacity="0">
      <g transform="translate(-32 -65) scale(.34)">
        <image href="https://raw.githubusercontent.com/Adrix1412/Adrix1412/main/assets/itachi-spritesheet.webp" x="-768" y="-190" width="1536" height="1872" preserveAspectRatio="none" style="image-rendering:pixelated" />
      </g>
      <animate attributeName="opacity" values="0;1;1;0;0" keyTimes="0;0.500;0.615;0.625;1" dur=".72s" repeatCount="indefinite" />
    </g>
    <g clip-path="url(#spriteClip)" opacity="0">
      <g transform="translate(-32 -65) scale(.34)">
        <image href="https://raw.githubusercontent.com/Adrix1412/Adrix1412/main/assets/itachi-spritesheet.webp" x="-960" y="-190" width="1536" height="1872" preserveAspectRatio="none" style="image-rendering:pixelated" />
      </g>
      <animate attributeName="opacity" values="0;1;1;0;0" keyTimes="0;0.625;0.740;0.750;1" dur=".72s" repeatCount="indefinite" />
    </g>
    <g clip-path="url(#spriteClip)" opacity="0">
      <g transform="translate(-32 -65) scale(.34)">
        <image href="https://raw.githubusercontent.com/Adrix1412/Adrix1412/main/assets/itachi-spritesheet.webp" x="-1152" y="-190" width="1536" height="1872" preserveAspectRatio="none" style="image-rendering:pixelated" />
      </g>
      <animate attributeName="opacity" values="0;1;1;0;0" keyTimes="0;0.750;0.865;0.875;1" dur=".72s" repeatCount="indefinite" />
    </g>
    <g clip-path="url(#spriteClip)" opacity="0">
      <g transform="translate(-32 -65) scale(.34)">
        <image href="https://raw.githubusercontent.com/Adrix1412/Adrix1412/main/assets/itachi-spritesheet.webp" x="-1344" y="-190" width="1536" height="1872" preserveAspectRatio="none" style="image-rendering:pixelated" />
      </g>
      <animate attributeName="opacity" values="0;1;1;0;0" keyTimes="0;0.875;0.990;1.000;1" dur=".72s" repeatCount="indefinite" />
    </g>
      <animateTransform attributeName="transform" type="translate" values="0 0;0 -2;0 0" keyTimes="0;.5;1" dur=".72s" repeatCount="indefinite" />
    </g>
    <animateMotion dur="10s" repeatCount="indefinite" rotate="auto">
      <mpath href="#runPath" />
    </animateMotion>
  </g>
</svg>