<svg xmlns="http://www.w3.org/2000/svg" width="1384" height="160" viewBox="0 0 1384 160">
  <rect width="100%" height="100%" fill="#1e1408" />
  <line x1="15" y1="144" x2="1369" y2="144" stroke="rgba(200,169,110,.25)" stroke-width="1" />

  <g>
    <rect x="20" y="83" width="10" height="57" rx="2" fill="#C8A96E" />
    <rect x="36" y="83" width="10" height="57" rx="2" fill="#C8A96E" />
    <rect x="52" y="83" width="10" height="57" rx="2" fill="#C8A96E" />
    <rect x="68" y="136" width="10" height="4" rx="2" fill="#2a1c0a" />
    <rect x="84" y="136" width="10" height="4" rx="2" fill="#2a1c0a" />
    <rect x="100" y="136" width="10" height="4" rx="2" fill="#2a1c0a" />
    <rect x="116" y="136" width="10" height="4" rx="2" fill="#2a1c0a" />
    <rect x="132" y="136" width="10" height="4" rx="2" fill="#2a1c0a" />
    <rect x="148" y="136" width="10" height="4" rx="2" fill="#2a1c0a" />
    <rect x="164" y="136" width="10" height="4" rx="2" fill="#2a1c0a" />
    <rect x="180" y="136" width="10" height="4" rx="2" fill="#2a1c0a" />
    <rect x="196" y="136" width="10" height="4" rx="2" fill="#2a1c0a" />
    <rect x="212" y="136" width="10" height="4" rx="2" fill="#2a1c0a" />
    <rect x="228" y="136" width="10" height="4" rx="2" fill="#2a1c0a" />
    <rect x="244" y="136" width="10" height="4" rx="2" fill="#2a1c0a" />
    <rect x="260" y="136" width="10" height="4" rx="2" fill="#2a1c0a" />
    <rect x="276" y="136" width="10" height="4" rx="2" fill="#2a1c0a" />
    <rect x="292" y="136" width="10" height="4" rx="2" fill="#2a1c0a" />
    <rect x="308" y="136" width="10" height="4" rx="2" fill="#2a1c0a" />
    <rect x="324" y="136" width="10" height="4" rx="2" fill="#2a1c0a" />
    <rect x="340" y="136" width="10" height="4" rx="2" fill="#2a1c0a" />
    <rect x="356" y="136" width="10" height="4" rx="2" fill="#2a1c0a" />
    <rect x="372" y="136" width="10" height="4" rx="2" fill="#2a1c0a" />
    <rect x="388" y="136" width="10" height="4" rx="2" fill="#2a1c0a" />
    <rect x="404" y="136" width="10" height="4" rx="2" fill="#2a1c0a" />
    <rect x="420" y="136" width="10" height="4" rx="2" fill="#2a1c0a" />
    <rect x="436" y="136" width="10" height="4" rx="2" fill="#2a1c0a" />
    <rect x="452" y="136" width="10" height="4" rx="2" fill="#2a1c0a" />
    <rect x="468" y="136" width="10" height="4" rx="2" fill="#2a1c0a" />
    <rect x="484" y="136" width="10" height="4" rx="2" fill="#2a1c0a" />
    <rect x="500" y="136" width="10" height="4" rx="2" fill="#2a1c0a" />
    <rect x="516" y="136" width="10" height="4" rx="2" fill="#2a1c0a" />
    <rect x="532" y="136" width="10" height="4" rx="2" fill="#2a1c0a" />
    <rect x="548" y="136" width="10" height="4" rx="2" fill="#2a1c0a" />
    <rect x="564" y="136" width="10" height="4" rx="2" fill="#2a1c0a" />
    <rect x="580" y="136" width="10" height="4" rx="2" fill="#2a1c0a" />
    <rect x="596" y="136" width="10" height="4" rx="2" fill="#2a1c0a" />
    <rect x="612" y="136" width="10" height="4" rx="2" fill="#2a1c0a" />
    <rect x="628" y="136" width="10" height="4" rx="2" fill="#2a1c0a" />
    <rect x="644" y="136" width="10" height="4" rx="2" fill="#2a1c0a" />
    <rect x="660" y="136" width="10" height="4" rx="2" fill="#2a1c0a" />
    <rect x="676" y="136" width="10" height="4" rx="2" fill="#2a1c0a" />
    <rect x="692" y="136" width="10" height="4" rx="2" fill="#2a1c0a" />
    <rect x="708" y="136" width="10" height="4" rx="2" fill="#2a1c0a" />
    <rect x="724" y="111" width="10" height="29" rx="2" fill="#C8A96E" />
    <rect x="740" y="136" width="10" height="4" rx="2" fill="#2a1c0a" />
    <rect x="756" y="69" width="10" height="71" rx="2" fill="#C8A96E" />
    <rect x="772" y="136" width="10" height="4" rx="2" fill="#2a1c0a" />
    <rect x="788" y="136" width="10" height="4" rx="2" fill="#2a1c0a" />
    <rect x="804" y="136" width="10" height="4" rx="2" fill="#2a1c0a" />
    <rect x="820" y="69" width="10" height="71" rx="2" fill="#C8A96E" />
    <rect x="836" y="136" width="10" height="4" rx="2" fill="#2a1c0a" />
    <rect x="852" y="136" width="10" height="4" rx="2" fill="#2a1c0a" />
    <rect x="868" y="136" width="10" height="4" rx="2" fill="#2a1c0a" />
    <rect x="884" y="136" width="10" height="4" rx="2" fill="#2a1c0a" />
    <rect x="900" y="136" width="10" height="4" rx="2" fill="#2a1c0a" />
    <rect x="916" y="136" width="10" height="4" rx="2" fill="#2a1c0a" />
    <rect x="932" y="136" width="10" height="4" rx="2" fill="#2a1c0a" />
    <rect x="948" y="136" width="10" height="4" rx="2" fill="#2a1c0a" />
    <rect x="964" y="136" width="10" height="4" rx="2" fill="#2a1c0a" />
    <rect x="980" y="136" width="10" height="4" rx="2" fill="#2a1c0a" />
    <rect x="996" y="111" width="10" height="29" rx="2" fill="#C8A96E" />
    <rect x="1012" y="126" width="10" height="14" rx="2" fill="#C8A96E" />
    <rect x="1028" y="136" width="10" height="4" rx="2" fill="#2a1c0a" />
    <rect x="1044" y="136" width="10" height="4" rx="2" fill="#2a1c0a" />
    <rect x="1060" y="136" width="10" height="4" rx="2" fill="#2a1c0a" />
    <rect x="1076" y="136" width="10" height="4" rx="2" fill="#2a1c0a" />
    <rect x="1092" y="136" width="10" height="4" rx="2" fill="#2a1c0a" />
    <rect x="1108" y="136" width="10" height="4" rx="2" fill="#2a1c0a" />
    <rect x="1124" y="136" width="10" height="4" rx="2" fill="#2a1c0a" />
    <rect x="1140" y="136" width="10" height="4" rx="2" fill="#2a1c0a" />
    <rect x="1156" y="136" width="10" height="4" rx="2" fill="#2a1c0a" />
    <rect x="1172" y="136" width="10" height="4" rx="2" fill="#2a1c0a" />
    <rect x="1188" y="136" width="10" height="4" rx="2" fill="#2a1c0a" />
    <rect x="1204" y="136" width="10" height="4" rx="2" fill="#2a1c0a" />
    <rect x="1220" y="136" width="10" height="4" rx="2" fill="#2a1c0a" />
    <rect x="1236" y="136" width="10" height="4" rx="2" fill="#2a1c0a" />
    <rect x="1252" y="136" width="10" height="4" rx="2" fill="#2a1c0a" />
    <rect x="1268" y="126" width="10" height="14" rx="2" fill="#C8A96E" />
    <rect x="1284" y="136" width="10" height="4" rx="2" fill="#2a1c0a" />
    <rect x="1300" y="136" width="10" height="4" rx="2" fill="#2a1c0a" />
    <rect x="1316" y="136" width="10" height="4" rx="2" fill="#2a1c0a" />
    <rect x="1332" y="40" width="10" height="100" rx="2" fill="#C8A96E" />
    <rect x="1348" y="136" width="10" height="4" rx="2" fill="#2a1c0a" />
  </g>

  <path id="runPath" d="M 25 69 Q 33 47 41 69 Q 49 47 57 69 Q 65 47 73 122 Q 81 100 89 122 Q 97 100 105 122 Q 113 100 121 122 Q 129 100 137 122 Q 145 100 153 122 Q 161 100 169 122 Q 177 100 185 122 Q 193 100 201 122 Q 209 100 217 122 Q 225 100 233 122 Q 241 100 249 122 Q 257 100 265 122 Q 273 100 281 122 Q 289 100 297 122 Q 305 100 313 122 Q 321 100 329 122 Q 337 100 345 122 Q 353 100 361 122 Q 369 100 377 122 Q 385 100 393 122 Q 401 100 409 122 Q 417 100 425 122 Q 433 100 441 122 Q 449 100 457 122 Q 465 100 473 122 Q 481 100 489 122 Q 497 100 505 122 Q 513 100 521 122 Q 529 100 537 122 Q 545 100 553 122 Q 561 100 569 122 Q 577 100 585 122 Q 593 100 601 122 Q 609 100 617 122 Q 625 100 633 122 Q 641 100 649 122 Q 657 100 665 122 Q 673 100 681 122 Q 689 100 697 122 Q 705 100 713 122 Q 721 75 729 97 Q 737 75 745 122 Q 753 33 761 55 Q 769 33 777 122 Q 785 100 793 122 Q 801 100 809 122 Q 817 33 825 55 Q 833 33 841 122 Q 849 100 857 122 Q 865 100 873 122 Q 881 100 889 122 Q 897 100 905 122 Q 913 100 921 122 Q 929 100 937 122 Q 945 100 953 122 Q 961 100 969 122 Q 977 100 985 122 Q 993 75 1001 97 Q 1009 75 1017 112 Q 1025 90 1033 122 Q 1041 100 1049 122 Q 1057 100 1065 122 Q 1073 100 1081 122 Q 1089 100 1097 122 Q 1105 100 1113 122 Q 1121 100 1129 122 Q 1137 100 1145 122 Q 1153 100 1161 122 Q 1169 100 1177 122 Q 1185 100 1193 122 Q 1201 100 1209 122 Q 1217 100 1225 122 Q 1233 100 1241 122 Q 1249 100 1257 122 Q 1265 90 1273 112 Q 1281 90 1289 122 Q 1297 100 1305 122 Q 1313 100 1321 122 Q 1329 4 1337 26 Q 1345 4 1353 122" fill="none" stroke="none" />

  <g id="runner">
    <circle r="7" fill="#4FC3C8" />
    <circle cx="-3" cy="-2" r="1.4" fill="#1e1408" />
    <circle cx="3" cy="-2" r="1.4" fill="#1e1408" />
    <animateMotion dur="14s" repeatCount="indefinite" rotate="auto">
      <mpath href="#runPath" />
    </animateMotion>
    <animateTransform attributeName="transform" type="scale" additive="sum"
      values="1 1; 1.15 0.85; 1 1" keyTimes="0;0.5;1" dur="0.4s" repeatCount="indefinite" />
  </g>
</svg>